<?xml version="1.0" encoding="UTF-8"?>
<svg version="1.1" xmlns="http://www.w3.org/2000/svg" width="512" height="512">
<path d="M0 0 C2.59621269 1.64017491 4.76426597 3.65386772 7 5.75 C8.32127946 6.94177789 9.64290383 8.1331735 10.96484375 9.32421875 C11.63370605 9.93571777 12.30256836 10.5472168 12.99169922 11.17724609 C16.13340584 14.0286905 19.34829275 16.79341443 22.5625 19.5625 C23.80224962 20.63652683 25.04183325 21.7107453 26.28125 22.78515625 C30.03409233 26.03227537 33.7957722 29.2690025 37.5625 32.5 C38.40180054 33.22038452 38.40180054 33.22038452 39.25805664 33.95532227 C40.32093115 34.86578579 41.39114853 35.76776142 42.46923828 36.66015625 C44 38 44 38 45.41748047 39.55859375 C46.98131876 41.29715971 46.98131876 41.29715971 50 43 C52.05930308 42.71684645 52.05930308 42.71684645 54.1862793 41.85229492 C54.9834285 41.558862 55.7805777 41.26542908 56.60188293 40.96310425 C60.18201962 39.52529085 63.68944465 37.97525349 67.1796875 36.33203125 C67.93835114 35.97981506 68.69701477 35.62759888 69.47866821 35.26470947 C71.10370304 34.50964528 72.72773463 33.75241873 74.35083008 32.99319458 C77.79036754 31.38433172 81.23478635 29.78604646 84.67889404 28.18699646 C86.45686145 27.36134823 88.23456967 26.53514165 90.01202393 25.70838928 C98.40093467 21.80742057 106.80833287 17.94747344 115.22320557 14.10287476 C117.45509356 13.08301987 119.68631421 12.06171586 121.91748047 11.0402832 C123.28869055 10.41347265 124.65994464 9.78675835 126.03125 9.16015625 C127.21267578 8.62011963 128.39410156 8.08008301 129.61132812 7.52368164 C141.55255104 2.15443292 141.55255104 2.15443292 148 3 C151.95495234 6.96671865 154.01544363 11.86536931 156.30078125 16.89453125 C156.7002446 17.75954758 157.09970795 18.6245639 157.51127625 19.51579285 C158.78487467 22.27841383 160.04863101 25.04541668 161.3125 27.8125 C162.14978692 29.62983555 162.98767228 31.44689552 163.82617188 33.26367188 C167.64267598 41.5498493 171.41557856 49.85582046 175.10546875 58.19921875 C175.40205887 58.86395706 175.69864899 59.52869537 176.00422668 60.21357727 C178 64.76482403 178 64.76482403 178 67 C179.11479736 66.69102783 180.22959473 66.38205566 181.37817383 66.0637207 C195.31122416 62.58276509 211.6743343 60.45312035 225 67 C237.3357829 74.60196993 247.50202652 85.92020855 257.375 96.375 C258.03824406 97.0764426 258.70148811 97.77788521 259.38483047 98.50058365 C266.13162772 105.66461283 272.75515274 112.93401359 279.21630859 120.35693359 C279.69066754 120.90141805 280.16502649 121.4459025 280.65375996 122.00688648 C283.71921408 125.56744593 285.11834802 127.46886734 285.15821838 132.15078735 C285.17290161 133.45489815 285.17290161 133.45489815 285.18788147 134.78535461 C285.19363693 135.74129013 285.1993924 136.69722565 285.20532227 137.68212891 C285.21522186 138.68703873 285.22512146 139.69194855 285.23532104 140.72731018 C285.26699582 144.06037004 285.2917171 147.39344417 285.31640625 150.7265625 C285.33697061 153.03299335 285.35796694 155.33942038 285.37937927 157.64584351 C285.43465339 163.72526975 285.4840391 169.80473031 285.53222656 175.88421631 C285.58240264 182.08430038 285.638109 188.28433444 285.69335938 194.484375 C285.80100625 206.65620731 285.90243669 218.82808298 286 231 C287.02797699 230.9927037 288.05595398 230.98540741 289.11508179 230.97789001 C290.47825042 230.97198869 291.84141983 230.9662659 293.20458984 230.96069336 C293.88041611 230.95542381 294.55624237 230.95015427 295.25254822 230.94472504 C300.23772626 230.9294517 304.8082909 231.31687321 309.625 232.5625 C310.32955322 232.73813477 311.03410645 232.91376953 311.76000977 233.09472656 C328.65453808 237.64376801 342.617298 248.99170522 351.6875 263.75 C360.69853459 279.72686807 363.14517776 299.82032129 358.4375 317.625 C352.00281036 336.21410342 339.95539052 350.30959329 322.5 359.5 C319 361 319 361 316 361 C316.00888245 361.89012283 316.01776489 362.78024567 316.0269165 363.69734192 C316.10739139 372.12621258 316.16813061 380.55495238 316.20724869 388.98412037 C316.22803651 393.3166487 316.25619092 397.64885698 316.30175781 401.98120117 C316.34553275 406.16985361 316.36920315 410.35820011 316.37950897 414.54706383 C316.38684404 416.13731381 316.40116625 417.72754891 316.42292023 419.31766701 C316.60804027 433.42266393 314.35612059 444.13999274 304.4453125 454.6484375 C294.5092582 464.01400065 282.90383221 465.14925791 269.90086365 465.14717102 C268.05708314 465.15268605 268.05708314 465.15268605 266.17605454 465.1583125 C262.77141984 465.16741338 259.36683324 465.17204331 255.96219099 465.17470181 C252.28715928 465.17861582 248.61214138 465.18819332 244.93711853 465.19691467 C236.06592027 465.21664735 227.19472092 465.22674088 218.32350621 465.23564246 C214.14166048 465.24003029 209.959816 465.24539579 205.77797127 465.25063133 C191.86966305 465.26763982 177.96135561 465.28213313 164.0530386 465.28938007 C160.44641049 465.29128983 156.83978238 465.29321019 153.2331543 465.29516602 C151.88861037 465.29589163 151.88861037 465.29589163 150.51690394 465.2966319 C136.00220982 465.30492908 121.48759819 465.33026243 106.97294008 465.36274669 C92.05765203 465.3958544 77.14240586 465.41383215 62.22708088 465.41702431 C53.85809113 465.41918589 45.48922172 465.4278829 37.12026787 465.45348549 C29.99185912 465.4752432 22.86359996 465.48321804 15.73516177 465.47351871 C12.10208953 465.46898872 8.46932559 465.47078356 4.83629608 465.49028015 C0.88674531 465.51129112 -3.06238607 465.5008793 -7.01197815 465.48774719 C-8.71163824 465.50420106 -8.71163824 465.50420106 -10.4456349 465.52098733 C-23.45303276 465.41707901 -33.76761068 461.93936434 -43.12109375 452.96484375 C-51.53207454 444.21433713 -54.16510612 434.80321017 -54.07746887 422.82270813 C-54.07394006 422.1229718 -54.07041125 421.42323547 -54.0667755 420.70229501 C-54.0584749 419.1762617 -54.04781907 417.65023979 -54.03508186 416.12423706 C-54.01435589 413.64001793 -53.99964048 411.15582475 -53.98648071 408.67155457 C-53.97222582 405.99332465 -53.9575741 403.3151027 -53.94112074 400.63688529 C-53.90068582 393.99515096 -53.88000863 387.35356399 -53.8712616 380.7117157 C-53.86933618 379.26368851 -53.86933618 379.26368851 -53.86737186 377.78640825 C-53.86249385 373.8057772 -53.85831845 369.82514581 -53.85458529 365.84451354 C-53.84328733 354.5581419 -53.81248419 343.27261516 -53.72241211 331.98657227 C-53.65091737 323.01234909 -53.6219641 314.03912002 -53.64257544 305.06461972 C-53.6518926 300.31999565 -53.64006265 295.57759272 -53.57660866 290.83333778 C-53.51735717 286.36629105 -53.51486031 281.90270105 -53.55459976 277.43547249 C-53.55929293 275.80326726 -53.54373767 274.17084833 -53.50561714 272.53908157 C-53.21976636 262.93544536 -53.21976636 262.93544536 -57.57434654 254.66805077 C-60.4866648 251.80046027 -63.68929399 249.39408282 -67 247 C-68.84009755 245.50830562 -70.67459661 244.00964021 -72.5 242.5 C-73.3971875 241.778125 -74.294375 241.05625 -75.21875 240.3125 C-78.24019336 237.80028867 -81.12440078 235.17597543 -84 232.5 C-88.61001639 228.2104224 -93.37783236 224.19589103 -98.28515625 220.24609375 C-101.10673495 217.9116941 -103.80590712 215.48009402 -106.5 213 C-110.07792463 209.70668301 -113.71539666 206.55348679 -117.5 203.5 C-121.28460334 200.44651321 -124.92207537 197.29331699 -128.5 194 C-133.82259379 189.10382288 -139.36658149 184.53181203 -145 180 C-151.71603016 174.59023111 -151.71603016 174.59023111 -152.625 169.5 C-152.55653828 164.07196381 -149.18313165 161.33264547 -145.5625 157.6328125 C-143.05006204 155.05143569 -140.80785861 152.3772174 -138.5625 149.5625 C-134.70058325 144.78715598 -130.62325776 140.26332315 -126.46484375 135.74609375 C-124.07292703 133.08124834 -121.80745116 130.35168175 -119.5625 127.5625 C-115.90493736 123.02763839 -112.05382973 118.74463817 -108.08837891 114.48291016 C-104.28601193 110.37220724 -100.75729408 106.07724416 -97.24609375 101.71484375 C-94.9116941 98.89326505 -92.48009402 96.19409288 -90 93.5 C-86.70668301 89.92207537 -83.55348679 86.28460334 -80.5 82.5 C-76.66280969 77.74404581 -72.60614899 73.24495199 -68.46875 68.75 C-66.05621896 66.06262366 -63.7674379 63.31034556 -61.5 60.5 C-57.66280969 55.74404581 -53.60614899 51.24495199 -49.46875 46.75 C-47.05621896 44.06262366 -44.7674379 41.31034556 -42.5 38.5 C-38.66280969 33.74404581 -34.60614899 29.24495199 -30.46875 24.75 C-28.05621896 22.06262366 -25.7674379 19.31034556 -23.5 16.5 C-8.50055573 -2.05546225 -8.50055573 -2.05546225 0 0 Z " fill="#020202" transform="translate(152,24)"/>
<path d="M0 0 C1.21508743 -0.0159874 2.43017487 -0.03197479 3.68208313 -0.04844666 C4.98735458 -0.05380936 6.29262604 -0.05917206 7.63745117 -0.06469727 C9.00119622 -0.07367404 10.36494032 -0.08279606 11.72868347 -0.09205627 C14.58412053 -0.10851537 17.43944079 -0.11624057 20.29492188 -0.11914062 C23.93660378 -0.12451767 27.57717289 -0.16218044 31.21854115 -0.20788479 C34.0351706 -0.23777246 36.851536 -0.2448667 39.66831017 -0.24586678 C41.65795602 -0.25206641 43.64748641 -0.28147676 45.63691711 -0.31138611 C53.13836859 -0.27415446 58.08462757 0.3855718 63.86791992 5.30639648 C64.68373535 5.95334473 65.49955078 6.60029297 66.34008789 7.2668457 C73.78229788 14.09917735 80.89030963 21.24993088 87.99291992 28.43139648 C100.44428089 41.44399353 100.44428089 41.44399353 114.49291992 52.61889648 C115.18643555 53.0894043 115.87995117 53.55991211 116.59448242 54.04467773 C123.25822236 57.7429389 129.58664247 57.611241 137.02368164 57.62524414 C138.85379036 57.64031258 138.85379036 57.64031258 140.72087097 57.65568542 C144.05309102 57.68121913 147.38514196 57.69810954 150.7174201 57.71111345 C154.20482024 57.72678108 157.69213493 57.75355966 161.17947388 57.77914429 C167.77723653 57.82586794 174.37501537 57.86264299 180.97285855 57.89581716 C188.4868133 57.93408397 196.00068208 57.98348214 203.51456428 58.03380132 C218.96562062 58.13702573 234.41672524 58.22631686 249.86791992 58.30639648 C249.58533325 59.25144547 249.30274658 60.19649445 249.01159668 61.17018127 C248.64514038 62.4185527 248.27868408 63.66692413 247.90112305 64.953125 C247.35349304 66.80382347 247.35349304 66.80382347 246.7947998 68.69190979 C245.53440976 73.60696204 245.26075358 78.19403195 245.36791992 83.24389648 C245.38000488 84.18410645 245.39208984 85.12431641 245.40454102 86.09301758 C245.90190469 103.73586341 252.49777812 119.63175888 264.86791992 132.30639648 C278.27184317 144.20847959 293.5331261 150.04995482 311.26245117 150.88061523 C312.09248657 150.92295288 312.92252197 150.96529053 313.77770996 151.00891113 C315.80758927 151.11190249 317.83773184 151.20968275 319.86791992 151.30639648 C319.9842777 159.73893201 320.07286777 168.17112661 320.12698078 176.60426903 C320.15296551 180.52105644 320.18815596 184.43729065 320.24511719 188.35375977 C320.29983977 192.14043155 320.32942391 195.92657461 320.34230614 199.7136116 C320.3514746 201.15121396 320.36937714 202.58879062 320.39657021 204.02616501 C320.57919754 214.08876078 319.44081135 221.80835361 312.84057617 229.74389648 C312.21022461 230.25952148 311.57987305 230.77514648 310.93041992 231.30639648 C310.30264648 231.84264648 309.67487305 232.37889648 309.02807617 232.93139648 C302.63383031 237.0015132 296.01449536 236.59101501 288.69717407 236.5670929 C287.46037568 236.57091844 286.2235773 236.57474399 284.94930017 236.57868546 C281.52355066 236.58721273 278.09801601 236.5867841 274.67227268 236.58250487 C270.97483759 236.58003734 267.27742769 236.58905216 263.58000183 236.59654236 C256.33903715 236.60929078 249.09810956 236.61108286 241.85713555 236.6087421 C235.97109169 236.60695889 230.08505908 236.60870864 224.19901657 236.61296654 C222.94229897 236.61385932 222.94229897 236.61385932 221.66019314 236.61477014 C219.95815719 236.6159819 218.25612124 236.61719603 216.5540853 236.61841252 C200.59267779 236.62928867 184.6312914 236.62712524 168.6698827 236.62102767 C154.07099203 236.61585881 139.47216809 236.62711301 124.87329061 236.64612589 C109.88005118 236.66550254 94.88684332 236.67376057 79.89359128 236.67000264 C71.477283 236.66809028 63.0610315 236.67058147 54.64473343 236.68471718 C47.47959379 236.69662976 40.31454591 236.69803728 33.14940502 236.68592701 C29.49473169 236.68003736 25.8402262 236.67894115 22.18556404 236.69092941 C18.22117052 236.70378238 14.25703141 236.69332568 10.29263306 236.68061829 C9.14107117 236.68799257 7.98950929 236.69536686 6.80305159 236.7029646 C-2.49599085 236.64019966 -9.30843532 235.13004124 -16.13208008 228.30639648 C-20.57017166 221.99664967 -21.28101976 216.75088694 -21.27252197 209.20378113 C-21.27549309 208.38042481 -21.27846422 207.5570685 -21.28152537 206.70876199 C-21.29020666 203.94596778 -21.29172014 201.18321693 -21.29321289 198.42041016 C-21.29784144 196.44105436 -21.30286615 194.46169945 -21.30825806 192.48234558 C-21.32137985 187.10211907 -21.3278265 181.72190504 -21.33226871 176.34166503 C-21.33519958 172.98067224 -21.3393044 169.61968286 -21.34377289 166.25869179 C-21.35744676 155.74389003 -21.36711416 145.22909606 -21.37097478 134.71428603 C-21.37545648 122.57450824 -21.39301006 110.434843 -21.42197537 98.29509944 C-21.44358579 88.91239446 -21.45367871 79.52972116 -21.4550159 70.14699155 C-21.45606431 64.54255779 -21.46198001 58.93822983 -21.47983551 53.33382225 C-21.49630523 48.06184796 -21.49847698 42.79005915 -21.4896965 37.51806831 C-21.48892556 35.58431883 -21.49327633 33.65055942 -21.50315475 31.71683502 C-21.51586121 29.07432339 -21.51000458 26.43246998 -21.49957275 23.78996277 C-21.50762916 23.02710958 -21.51568556 22.2642564 -21.5239861 21.47828645 C-21.47074924 15.70113124 -20.35009371 10.89758302 -16.48364258 6.38061523 C-15.91387695 5.92299805 -15.34411133 5.46538086 -14.75708008 4.99389648 C-14.1924707 4.52338867 -13.62786133 4.05288086 -13.04614258 3.56811523 C-8.79131033 0.76339928 -5.05231308 0.05041838 0 0 Z " fill="#FEB956" transform="translate(134.132080078125,237.693603515625)"/>
<path d="M0 0 C48.18 0 96.36 0 146 0 C146.33 14.19 146.66 28.38 147 43 C151.34699977 51.35936925 151.34699977 51.35936925 159 55 C172.86 55.33 186.72 55.66 201 56 C201 88.67 201 121.34 201 155 C196.05 157.64 191.1 160.28 186 163 C182.06751439 165.88800363 182.06751439 165.88800363 179.1875 168.8125 C178.69958984 169.27591797 178.21167969 169.73933594 177.70898438 170.21679688 C175.48024814 172.36560602 173.72491052 174.41263423 172 177 C169.71475792 177.38311005 169.71475792 177.38311005 166.80209351 177.39440918 C165.70023712 177.40575897 164.59838074 177.41710876 163.46313477 177.42880249 C162.24859619 177.42587189 161.03405762 177.42294128 159.78271484 177.41992188 C158.50780182 177.42839142 157.23288879 177.43686096 155.91934204 177.44558716 C152.41484496 177.46786258 148.91058262 177.4707305 145.40602446 177.46883965 C142.47894021 177.46872011 139.55190597 177.47727836 136.62483561 177.48561716 C129.7138866 177.50487668 122.80305835 177.50772745 115.89208984 177.50097656 C108.77222023 177.49434895 101.65287043 177.51714202 94.53310621 177.55429029 C88.41661295 177.58504131 82.30028633 177.59634105 76.18371737 177.59245348 C72.53250986 177.59038976 68.88170585 177.59580439 65.23057175 177.62034607 C61.15125265 177.64685651 57.07301962 177.63284444 52.99365234 177.61523438 C51.79125916 177.62849762 50.58886597 177.64176086 49.35003662 177.65542603 C37.89716826 177.54068187 32.81598094 172.98460231 24.66731644 165.41019058 C21.9613205 162.96504915 19.15102209 160.72458389 16.28646851 158.46847534 C6.27450834 150.13035762 -0.9410952 143.16442727 -2.33346176 129.65605545 C-2.66700315 123.16203362 -2.50339879 116.69256987 -2.22816467 110.20005798 C-2.10056617 106.69150212 -2.09686602 103.18644007 -2.08129883 99.67553711 C-1.96694868 89.48994548 -1.65979419 79.30725148 -1.375 69.125 C-0.694375 34.908125 -0.694375 34.908125 0 0 Z " fill="#E5F1FA" transform="translate(221,105)"/>
<path d="M0 0 C2.97274357 3.55185688 4.78964038 7.54632913 6.6875 11.73046875 C7.20316528 12.85525383 7.20316528 12.85525383 7.72924805 14.00276184 C8.45436068 15.58775229 9.17704706 17.17385467 9.89746094 18.76098633 C10.98972987 21.16489707 12.09191883 23.5640694 13.1953125 25.96289062 C13.90164642 27.51014073 14.60739417 29.05765859 15.3125 30.60546875 C15.63758545 31.31205124 15.9626709 32.01863373 16.29760742 32.74662781 C17.93335126 36.36743043 19.37176275 39.98362824 20.61010742 43.76069641 C20.87264816 44.55837087 21.1351889 45.35604532 21.40568542 46.17789173 C21.60180923 46.77918746 21.79793304 47.38048319 22 48 C20.73101868 48.00364563 19.46203735 48.00729126 18.15460205 48.01104736 C6.20618388 48.04795961 -5.74197566 48.10569105 -17.69019699 48.18390274 C-23.83318921 48.22344232 -29.97603669 48.25559908 -36.11914062 48.27099609 C-42.04559403 48.28611985 -47.97164968 48.32048947 -53.89792633 48.36830902 C-56.16094764 48.38316701 -58.42402572 48.39104353 -60.68709564 48.39188385 C-63.8527029 48.39424192 -67.01720048 48.42122888 -70.18261719 48.45410156 C-71.12201141 48.4490712 -72.06140564 48.44404083 -73.02926636 48.43885803 C-73.89300873 48.45277084 -74.7567511 48.46668365 -75.64666748 48.48101807 C-76.39516338 48.48470524 -77.14365929 48.48839241 -77.91483688 48.49219131 C-80.94767544 49.23079145 -82.12975728 50.53483442 -84 53 C-84.60233233 55.66740833 -84.60233233 55.66740833 -84.51898193 58.644104 C-84.53985115 60.36883942 -84.53985115 60.36883942 -84.56114197 62.12841797 C-84.55359642 64.01439697 -84.55359642 64.01439697 -84.54589844 65.93847656 C-84.55463467 67.27896321 -84.56512064 68.61943943 -84.57722473 69.9598999 C-84.60509995 73.59599359 -84.6084891 77.23174729 -84.60750484 80.86793232 C-84.61063268 84.66901082 -84.63624813 88.46993588 -84.65948486 92.27093506 C-84.70005847 99.46732436 -84.72038872 106.66362302 -84.73345876 113.86010909 C-84.74932424 122.05359767 -84.7877379 130.2469319 -84.82805204 138.44033098 C-84.91046956 155.29350795 -84.96455003 172.14666016 -85 189 C-85.80824219 188.57847656 -86.61648437 188.15695313 -87.44921875 187.72265625 C-88.51785156 187.17480469 -89.58648437 186.62695312 -90.6875 186.0625 C-91.74324219 185.51722656 -92.79898438 184.97195312 -93.88671875 184.41015625 C-99.31524098 181.95131494 -104.47708734 181.81275154 -110.36328125 181.68359375 C-111.55125557 181.6524221 -111.55125557 181.6524221 -112.76322937 181.62062073 C-115.27956928 181.55552196 -117.79600872 181.49642577 -120.3125 181.4375 C-122.02409861 181.394277 -123.73568735 181.35066152 -125.44726562 181.30664062 C-129.63140984 181.19988153 -133.81565362 181.09850365 -138 181 C-148.59976928 158.19735157 -159.15527083 135.37691873 -169.52041626 112.46655273 C-171.38331837 108.35182886 -173.26163949 104.24444059 -175.1484375 100.140625 C-175.624021 99.10381592 -176.09960449 98.06700684 -176.58959961 96.9987793 C-177.45983781 95.10304395 -178.33284961 93.20857823 -179.20922852 91.31567383 C-179.58233154 90.50122803 -179.95543457 89.68678223 -180.33984375 88.84765625 C-180.66331787 88.14648682 -180.98679199 87.44531738 -181.32006836 86.72290039 C-182 85 -182 85 -182 83 C-151.16393658 68.81811365 -120.31252661 54.67069405 -89.40649414 40.6418457 C-82.40452182 37.4625884 -75.40719675 34.27359364 -68.41796875 31.06640625 C-65.50793163 29.73151093 -62.59779068 28.39684243 -59.6875 27.0625 C-58.97332916 26.73504791 -58.25915833 26.40759583 -57.52334595 26.07022095 C-44.24513285 19.98673873 -30.90927169 14.03664662 -17.54760742 8.13891602 C-16.45313293 7.65501907 -16.45313293 7.65501907 -15.33654785 7.16134644 C-13.98328649 6.56321087 -12.62948913 5.9662857 -11.27502441 5.37088013 C-7.46029905 3.68447161 -3.71628271 1.89321406 0 0 Z " fill="#5FB6FD" transform="translate(292,43)"/>
<path d="M0 0 C4.46033758 1.41919832 7.32849178 3.86616643 10.625 7.0625 C14.49572987 10.71762369 18.40860503 14.2250808 22.5625 17.5625 C27.4969254 21.52868786 32.1512448 25.72310851 36.78515625 30.03125 C38.83679121 32.02671788 38.83679121 32.02671788 41 33 C41 33.66 41 34.32 41 35 C23.55475904 43.03100793 6.10802105 51.05850453 -11.37747192 59.00158691 C-13.42632052 59.93242093 -15.47477862 60.86411012 -17.52319336 61.79589844 C-23.64377186 64.57843316 -29.76936479 67.34818653 -35.91015625 70.0859375 C-36.94922119 70.55136963 -37.98828613 71.01680176 -39.05883789 71.49633789 C-40.96053609 72.3473427 -42.86453128 73.19324107 -44.77124023 74.03295898 C-45.99822632 74.58318726 -45.99822632 74.58318726 -47.25 75.14453125 C-48.30960938 75.61403198 -48.30960938 75.61403198 -49.390625 76.09301758 C-51.1869762 76.90758462 -51.1869762 76.90758462 -52 79 C-52.03041152 85.51896772 -50.12042505 90.83747389 -47.30859375 96.6171875 C-46.9315329 97.41979004 -46.55447205 98.22239258 -46.16598511 99.04931641 C-44.9348909 101.66360792 -43.68608834 104.2690253 -42.4375 106.875 C-41.57490187 108.70127127 -40.71383671 110.52826733 -39.85424805 112.35595703 C-38.09799591 116.08852241 -36.3365109 119.81854388 -34.57128906 123.546875 C-30.75324953 131.6263393 -27.02559695 139.74689295 -23.3125 147.875 C-22.9816037 148.59803314 -22.6507074 149.32106628 -22.30978394 150.06600952 C-17.3285819 160.957175 -12.50458124 171.90154162 -8 183 C-9.52367187 183.11214844 -9.52367187 183.11214844 -11.078125 183.2265625 C-22.15696231 184.21272897 -32.03682741 186.37793453 -40 194.8125 C-46.61936883 203.38538988 -47.6951155 211.28330987 -48 222 C-55.40824645 216.70839539 -62.17020268 210.72808173 -69.01220703 204.73779297 C-72.16548355 201.98109654 -75.33313821 199.24106525 -78.5 196.5 C-79.74878402 195.41806812 -80.99748175 194.33603665 -82.24609375 193.25390625 C-82.86468262 192.71781738 -83.48327148 192.18172852 -84.12060547 191.62939453 C-86.00936858 189.99187764 -87.89735475 188.35346908 -89.78515625 186.71484375 C-96.40515919 180.9702131 -103.03973293 175.24361783 -109.69995117 169.5456543 C-116.49410928 163.72886404 -123.24674377 157.86417208 -130 152 C-127.38611916 147.90272684 -124.65303345 144.36820469 -121.3125 140.8125 C-117.91079156 137.13188136 -114.64375761 133.4031733 -111.5 129.5 C-107.66280969 124.74404581 -103.60614899 120.24495199 -99.46875 115.75 C-97.05621896 113.06262366 -94.7674379 110.31034556 -92.5 107.5 C-88.66164586 102.74260332 -84.60377641 98.24216082 -80.46484375 93.74609375 C-78.07292703 91.08124834 -75.80745116 88.35168175 -73.5625 85.5625 C-69.90493736 81.02763839 -66.05382973 76.74463817 -62.08837891 72.48291016 C-58.28601193 68.37220724 -54.75729408 64.07724416 -51.24609375 59.71484375 C-48.9116941 56.89326505 -46.48009402 54.19409288 -44 51.5 C-40.70668301 47.92207537 -37.55348679 44.28460334 -34.5 40.5 C-30.66280969 35.74404581 -26.60614899 31.24495199 -22.46875 26.75 C-19.28159538 23.19975182 -16.30519735 19.49930743 -13.3125 15.78515625 C-10.00209243 11.79812821 -6.49659616 8.00945606 -2.96875 4.21484375 C-0.97328212 2.16320879 -0.97328212 2.16320879 0 0 Z " fill="#006593" transform="translate(147,41)"/>
<path d="M0 0 C12.7663256 8.73209685 21.41180605 21.05385597 24.91796875 36.203125 C26.29414889 52.36524055 22.99077761 67.25699321 12.578125 80.0859375 C5.82275166 87.36705943 -0.9452739 91.44345111 -10.08203125 95.203125 C-10.92378906 95.56277344 -11.76554687 95.92242187 -12.6328125 96.29296875 C-24.38401528 100.57870153 -37.79318851 98.99864923 -49.08203125 94.203125 C-62.66477186 87.58789975 -72.17901139 77.45385042 -77.45703125 63.265625 C-81.8602826 50.26646122 -81.71643266 35.82218379 -76.08203125 23.203125 C-68.86226715 9.19379001 -57.58674838 -0.63559434 -42.77734375 -5.9921875 C-28.25762835 -9.15398599 -12.87167532 -7.50439879 0 0 Z " fill="#24C53A" transform="translate(473.08203125,276.796875)"/>
<path d="M0 0 C1.67416619 -0.0083016 1.67416619 -0.0083016 3.38215393 -0.0167709 C7.13568484 -0.03042371 10.88855617 -0.01538239 14.64207458 -0.00050354 C17.32743669 -0.00428501 20.01275416 -0.00963065 22.69810486 -0.01687622 C29.24255702 -0.03082054 35.78681643 -0.02324404 42.33125944 -0.00820064 C49.94879856 0.00864424 57.56628947 0.00545118 65.18384146 0.00170528 C78.77266 -0.00417537 92.36138592 0.01000684 105.95018005 0.03465271 C119.14357474 0.05857883 132.33684569 0.06565541 145.53025818 0.05516052 C159.89000899 0.04375836 174.24970255 0.04181219 188.60945266 0.05625862 C190.13979113 0.0577845 191.67012959 0.05930485 193.20046806 0.06081963 C193.95346808 0.06157744 194.70646809 0.06233525 195.48228629 0.06311603 C200.79540533 0.06786393 206.10849885 0.06600389 211.42161751 0.06175423 C217.89343808 0.05683413 224.36514153 0.06278258 230.83693523 0.08264852 C234.14061141 0.09253881 237.44407192 0.09600513 240.74776268 0.08975601 C244.32438548 0.08383717 247.90047607 0.09624329 251.47705078 0.11352539 C252.52781266 0.10751535 253.57857454 0.1015053 254.66117769 0.09531313 C255.61565104 0.10375307 256.57012438 0.11219301 257.55352116 0.12088871 C258.37952291 0.12191784 259.20552466 0.12294697 260.05655676 0.12400728 C262.7125616 0.59691316 263.58975463 1.34343651 265.17503357 3.50120544 C265.67503357 6.93870544 265.67503357 6.93870544 265.17503357 10.50120544 C263.02792972 13.03644624 261.26106176 14.32317815 257.94449234 14.86684716 C255.07486007 15.02268946 252.23101473 15.03880462 249.35716248 15.01586914 C248.25385904 15.02281467 247.15055561 15.0297602 246.01381874 15.0369162 C242.30954008 15.0552413 238.60589785 15.04490607 234.90159607 15.03465271 C232.24888615 15.04170835 229.59622177 15.05031468 226.94352722 15.0607605 C220.48211142 15.08240651 214.0208717 15.08227221 207.55943155 15.07413495 C202.30833644 15.06783633 197.05729269 15.0689707 191.80619812 15.07540703 C191.05897165 15.07630868 190.31174518 15.07721034 189.54187548 15.07813932 C188.02392179 15.07999051 186.50596812 15.08185307 184.98801446 15.08372688 C170.75254968 15.10030724 156.517184 15.09158394 142.28172517 15.0747413 C129.25528329 15.06004198 116.22907202 15.07467548 103.20265985 15.10351146 C89.82875545 15.13289636 76.45495753 15.14388054 63.08102226 15.13432926 C61.56863787 15.1333067 60.05625345 15.13231209 58.54386902 15.13134575 C57.79973775 15.13086936 57.05560647 15.13039297 56.28892577 15.12990214 C51.04382841 15.12773692 45.79883174 15.13754771 40.55375671 15.15211678 C34.16211284 15.1696229 27.77076307 15.16954771 21.37913084 15.14676512 C18.11758743 15.13560714 14.85667061 15.13518966 11.59513092 15.15106583 C8.060556 15.16691306 4.52741108 15.15212188 0.99290466 15.12939453 C-0.55596719 15.14714812 -0.55596719 15.14714812 -2.13612938 15.16526037 C-6.87704527 15.10309809 -9.09383159 15.05500002 -12.96592712 12.12209988 C-14.82496643 9.50120544 -14.82496643 9.50120544 -15.38746643 6.93870544 C-13.54824963 -1.03123405 -6.69566799 -0.06133526 0 0 Z " fill="#070502" transform="translate(157.82496643066406,430.49879455566406)"/>
<path d="M0 0 C1.28570892 -0.00990463 2.57141785 -0.01980927 3.89608765 -0.03001404 C5.3239603 -0.02577575 6.75183203 -0.02121786 8.17970276 -0.01637268 C9.68103037 -0.02207391 11.18235364 -0.02903721 12.68367004 -0.03717041 C16.76427161 -0.05514487 20.84465866 -0.0539254 24.92528796 -0.04822803 C28.32997699 -0.04514222 31.73462444 -0.05122186 35.13930756 -0.05726677 C43.17054854 -0.07132458 51.20168317 -0.06974042 59.23292542 -0.05836487 C67.52239779 -0.04688312 75.81154667 -0.06095729 84.10097641 -0.08776134 C91.21443954 -0.10990293 98.32780101 -0.1165592 105.44129616 -0.11068493 C109.69143642 -0.10731034 113.9413693 -0.10976349 118.19148064 -0.12693596 C122.18805673 -0.14237853 126.18415289 -0.13847992 130.18070984 -0.11963081 C131.64807098 -0.11593736 133.11546746 -0.11907544 134.5827961 -0.1295166 C136.58462089 -0.14267427 138.58656917 -0.12880334 140.58837891 -0.11352539 C141.70906989 -0.11331611 142.82976088 -0.11310682 143.98441219 -0.1128912 C147.53276372 0.50529064 148.74437383 1.50803428 150.85768127 4.38768005 C150.85768127 8.06970659 150.84043904 10.39790518 148.17905331 13.0782938 C145.19150686 14.76344043 143.1408898 14.76776612 139.71572876 14.77536011 C138.45533279 14.78526474 137.19493683 14.79516937 135.89634705 14.80537415 C134.50202845 14.80113613 133.10771079 14.79657827 131.71339417 14.79173279 C130.24309774 14.79743584 128.77280575 14.80439985 127.30252075 14.81253052 C123.3107499 14.83048469 119.31919861 14.82928932 115.32739949 14.82358813 C111.99482876 14.82049944 108.6623004 14.82658519 105.3297357 14.83262688 C97.46767721 14.84667799 89.60572737 14.84510605 81.7436676 14.83372498 C73.63312329 14.82224363 65.52290963 14.83631822 57.41240889 14.86312145 C50.44837746 14.88527409 43.48444985 14.89191681 36.52038568 14.88604504 C32.36132957 14.88267313 28.20248542 14.88510587 24.04345894 14.90229607 C20.13222371 14.91775625 16.22147848 14.91382041 12.31026268 14.89499092 C10.87557189 14.89130238 9.44084487 14.89442134 8.00618744 14.90487671 C6.04636791 14.91806787 4.08642196 14.90414258 2.12661743 14.8888855 C1.03027009 14.88867621 -0.06607725 14.88846693 -1.19564724 14.8882513 C-4.87404346 14.26337696 -6.55324314 13.03955035 -9.14231873 10.38768005 C-9.95641536 4.58724154 -9.95641536 4.58724154 -7.99496365 1.69706631 C-5.31150697 -0.19950937 -3.26818411 0.0070885 0 0 Z " fill="#070707" transform="translate(251.14231872558594,207.61231994628906)"/>
<path d="M0 0 C1.28570892 -0.00990463 2.57141785 -0.01980927 3.89608765 -0.03001404 C5.3239603 -0.02577575 6.75183203 -0.02121786 8.17970276 -0.01637268 C9.68103037 -0.02207391 11.18235364 -0.02903721 12.68367004 -0.03717041 C16.76427161 -0.05514487 20.84465866 -0.0539254 24.92528796 -0.04822803 C28.32997699 -0.04514222 31.73462444 -0.05122186 35.13930756 -0.05726677 C43.17054854 -0.07132458 51.20168317 -0.06974042 59.23292542 -0.05836487 C67.52239779 -0.04688312 75.81154667 -0.06095729 84.10097641 -0.08776134 C91.21443954 -0.10990293 98.32780101 -0.1165592 105.44129616 -0.11068493 C109.69143642 -0.10731034 113.9413693 -0.10976349 118.19148064 -0.12693596 C122.18805673 -0.14237853 126.18415289 -0.13847992 130.18070984 -0.11963081 C131.64807098 -0.11593736 133.11546746 -0.11907544 134.5827961 -0.1295166 C136.58462089 -0.14267427 138.58656917 -0.12880334 140.58837891 -0.11352539 C141.70906989 -0.11331611 142.82976088 -0.11310682 143.98441219 -0.1128912 C147.53276372 0.50529064 148.74437383 1.50803428 150.85768127 4.38768005 C150.85768127 8.06970659 150.84043904 10.39790518 148.17905331 13.0782938 C145.19150686 14.76344043 143.1408898 14.76776612 139.71572876 14.77536011 C138.45533279 14.78526474 137.19493683 14.79516937 135.89634705 14.80537415 C134.50202845 14.80113613 133.10771079 14.79657827 131.71339417 14.79173279 C130.24309774 14.79743584 128.77280575 14.80439985 127.30252075 14.81253052 C123.3107499 14.83048469 119.31919861 14.82928932 115.32739949 14.82358813 C111.99482876 14.82049944 108.6623004 14.82658519 105.3297357 14.83262688 C97.46767721 14.84667799 89.60572737 14.84510605 81.7436676 14.83372498 C73.63312329 14.82224363 65.52290963 14.83631822 57.41240889 14.86312145 C50.44837746 14.88527409 43.48444985 14.89191681 36.52038568 14.88604504 C32.36132957 14.88267313 28.20248542 14.88510587 24.04345894 14.90229607 C20.13222371 14.91775625 16.22147848 14.91382041 12.31026268 14.89499092 C10.87557189 14.89130238 9.44084487 14.89442134 8.00618744 14.90487671 C6.04636791 14.91806787 4.08642196 14.90414258 2.12661743 14.8888855 C1.03027009 14.88867621 -0.06607725 14.88846693 -1.19564724 14.8882513 C-4.87404346 14.26337696 -6.55324314 13.03955035 -9.14231873 10.38768005 C-9.95641536 4.58724154 -9.95641536 4.58724154 -7.99496365 1.69706631 C-5.31150697 -0.19950937 -3.26818411 0.0070885 0 0 Z " fill="#060707" transform="translate(251.14231872558594,241.61231994628906)"/>
<path d="M0 0 C1.28570892 -0.00990463 2.57141785 -0.01980927 3.89608765 -0.03001404 C5.3239603 -0.02577575 6.75183203 -0.02121786 8.17970276 -0.01637268 C9.68103037 -0.02207391 11.18235364 -0.02903721 12.68367004 -0.03717041 C16.76427161 -0.05514487 20.84465866 -0.0539254 24.92528796 -0.04822803 C28.32997699 -0.04514222 31.73462444 -0.05122186 35.13930756 -0.05726677 C43.17054854 -0.07132458 51.20168317 -0.06974042 59.23292542 -0.05836487 C67.52239779 -0.04688312 75.81154667 -0.06095729 84.10097641 -0.08776134 C91.21443954 -0.10990293 98.32780101 -0.1165592 105.44129616 -0.11068493 C109.69143642 -0.10731034 113.9413693 -0.10976349 118.19148064 -0.12693596 C122.18805673 -0.14237853 126.18415289 -0.13847992 130.18070984 -0.11963081 C131.64807098 -0.11593736 133.11546746 -0.11907544 134.5827961 -0.1295166 C136.58462089 -0.14267427 138.58656917 -0.12880334 140.58837891 -0.11352539 C141.70906989 -0.11331611 142.82976088 -0.11310682 143.98441219 -0.1128912 C147.53276372 0.50529064 148.74437383 1.50803428 150.85768127 4.38768005 C150.85768127 8.06970659 150.84043904 10.39790518 148.17905331 13.0782938 C145.19150686 14.76344043 143.1408898 14.76776612 139.71572876 14.77536011 C138.45533279 14.78526474 137.19493683 14.79516937 135.89634705 14.80537415 C134.50202845 14.80113613 133.10771079 14.79657827 131.71339417 14.79173279 C130.24309774 14.79743584 128.77280575 14.80439985 127.30252075 14.81253052 C123.3107499 14.83048469 119.31919861 14.82928932 115.32739949 14.82358813 C111.99482876 14.82049944 108.6623004 14.82658519 105.3297357 14.83262688 C97.46767721 14.84667799 89.60572737 14.84510605 81.7436676 14.83372498 C73.63312329 14.82224363 65.52290963 14.83631822 57.41240889 14.86312145 C50.44837746 14.88527409 43.48444985 14.89191681 36.52038568 14.88604504 C32.36132957 14.88267313 28.20248542 14.88510587 24.04345894 14.90229607 C20.13222371 14.91775625 16.22147848 14.91382041 12.31026268 14.89499092 C10.87557189 14.89130238 9.44084487 14.89442134 8.00618744 14.90487671 C6.04636791 14.91806787 4.08642196 14.90414258 2.12661743 14.8888855 C1.03027009 14.88867621 -0.06607725 14.88846693 -1.19564724 14.8882513 C-4.87404346 14.26337696 -6.55324314 13.03955035 -9.14231873 10.38768005 C-9.95641536 4.58724154 -9.95641536 4.58724154 -7.99496365 1.69706631 C-5.31150697 -0.19950937 -3.26818411 0.0070885 0 0 Z " fill="#070808" transform="translate(251.14231872558594,173.61231994628906)"/>
<path d="M0 0 C0.92904144 -0.00700928 1.85808289 -0.01401855 2.8152771 -0.02124023 C5.88106322 -0.03882099 8.94592352 -0.02719696 12.01171875 -0.01367188 C14.14493995 -0.01636676 16.27815995 -0.02024915 18.41137695 -0.02526855 C22.88016465 -0.03116372 27.34863234 -0.02259982 31.81738281 -0.00390625 C37.54420952 0.01888304 43.27028638 0.0057601 48.99708557 -0.01819611 C53.4014653 -0.03265341 57.80566739 -0.02804834 62.21005249 -0.01768494 C64.32156462 -0.01501748 66.43309291 -0.01828807 68.54458618 -0.02760315 C71.49630424 -0.03776737 74.44680971 -0.02226895 77.3984375 0 C78.70619644 -0.01214539 78.70619644 -0.01214539 80.04037476 -0.02453613 C84.08945678 0.03202869 86.21181701 0.22276893 89.74926758 2.36242676 C91.69921875 4.51757812 91.69921875 4.51757812 92.19921875 7.51757812 C91.62038193 10.99059902 91.3232566 12.16976603 88.69921875 14.51757812 C85.55126599 15.13543402 82.42528773 15.05291697 79.2265625 15.01928711 C77.77009811 15.02739159 77.77009811 15.02739159 76.28421021 15.03565979 C73.06807159 15.04818802 69.85282101 15.03162848 66.63671875 15.01367188 C64.40616814 15.01382677 62.17561726 15.01531412 59.94506836 15.01808167 C55.26762004 15.0194675 50.59047766 15.00687653 45.91308594 14.98413086 C39.91034004 14.95574596 33.90810274 14.95848123 27.90531921 14.97122097 C23.2985803 14.97816811 18.69195944 14.97039987 14.0852356 14.95796394 C11.8715968 14.95344007 9.65794538 14.95312078 7.44430542 14.95702934 C4.35322999 14.95993206 1.26286126 14.94347919 -1.828125 14.92163086 C-3.20748734 14.92838333 -3.20748734 14.92838333 -4.61471558 14.93527222 C-5.45591949 14.92536758 -6.29712341 14.91546295 -7.16381836 14.90525818 C-7.89459091 14.90282828 -8.62536346 14.90039839 -9.37828064 14.89789486 C-11.89204944 14.4006111 -12.77213939 13.54819304 -14.30078125 11.51757812 C-14.80078125 8.08007812 -14.80078125 8.08007812 -14.30078125 4.51757812 C-10.06083809 -0.24499231 -5.95457076 -0.05530114 0 0 Z " fill="#070808" transform="translate(256.30078125,138.482421875)"/>
<path d="M0 0 C2.4375 1.5625 2.4375 1.5625 4 4 C3.76774178 9.4329045 2.66482914 12.087066 -1.14916992 15.90966797 C-2.03066208 16.8068454 -2.91215424 17.70402283 -3.82035828 18.62838745 C-4.78971096 19.58368218 -5.75976521 20.53826546 -6.73046875 21.4921875 C-7.7245275 22.48775002 -8.71762117 23.48427703 -9.70979309 24.48171997 C-11.78772075 26.56397017 -13.87580263 28.63528859 -15.97192383 30.69921875 C-18.65286265 33.34035173 -21.30850018 36.00533071 -23.95720959 38.67873955 C-26.0026727 40.73840957 -28.06013488 42.7857427 -30.12148476 44.82950211 C-31.10536267 45.80754657 -32.08571038 46.78915604 -33.06236839 47.77441025 C-34.43067195 49.15073663 -35.81693944 50.50913248 -37.20385742 51.86669922 C-37.98693771 52.64278534 -38.77001801 53.41887146 -39.576828 54.21847534 C-42.44113573 56.32432456 -44.47904659 56.76842843 -48 57 C-49.80859375 56.09375 -49.80859375 56.09375 -51.4375 54.5 C-52.42556641 53.5409375 -52.42556641 53.5409375 -53.43359375 52.5625 C-54.28050781 51.716875 -55.12742187 50.87125 -56 50 C-57.28050796 48.81029606 -58.56325803 47.62300297 -59.84765625 46.4375 C-61.23332422 45.12664009 -62.6174231 43.81411968 -64 42.5 C-64.68376709 41.87158203 -65.36753418 41.24316406 -66.07202148 40.59570312 C-69.40424009 37.35167417 -70.88300187 35.89335778 -71.50390625 31.15234375 C-71 28 -71 28 -69.9375 26.0625 C-66.65815876 24.26415158 -64.69194477 24.39476315 -61 25 C-58.004164 27.01264658 -55.53090128 29.43842113 -53 32 C-52.39285156 32.59425781 -51.78570312 33.18851562 -51.16015625 33.80078125 C-49.75704275 35.18408609 -48.37593898 36.58966255 -47 38 C-43.87089582 36.6126656 -41.76460071 35.00527326 -39.36474609 32.57592773 C-38.67077728 31.87858017 -37.97680847 31.1812326 -37.2618103 30.4627533 C-36.52314728 29.71063065 -35.78448425 28.958508 -35.0234375 28.18359375 C-33.87374985 27.02610374 -33.87374985 27.02610374 -32.70083618 25.8452301 C-30.25409823 23.38068313 -27.81415106 20.90955414 -25.375 18.4375 C-22.92784707 15.96275662 -20.47926422 13.48947206 -18.02774048 11.01905823 C-16.50250282 9.481535 -14.97994583 7.94134713 -13.46029663 6.39830017 C-12.77263214 5.70410477 -12.08496765 5.00990936 -11.37646484 4.29467773 C-10.77119965 3.68115952 -10.16593445 3.0676413 -9.54232788 2.43553162 C-6.52010342 -0.37742328 -4.03196351 -0.40319635 0 0 Z " fill="#000401" transform="translate(479,294)"/>
<path d="M0 0 C0.71592316 -0.00540298 1.43184631 -0.01080597 2.16946411 -0.01637268 C4.53136791 -0.02886016 6.89205271 -0.01237026 9.25390625 0.00561523 C10.89770573 0.00546024 12.54150558 0.00397128 14.18530273 0.00120544 C17.62858252 -0.00017855 21.07144576 0.01237916 24.51464844 0.03515625 C28.92662048 0.06354116 33.33790045 0.06080371 37.74992371 0.04806614 C41.14373681 0.04110861 44.53739016 0.04889903 47.93118286 0.06132317 C49.55786527 0.06583697 51.18456483 0.06617508 52.81124878 0.06225777 C55.08546047 0.05934475 57.35872105 0.0758555 59.6328125 0.09765625 C60.92646729 0.10305923 62.22012207 0.10846222 63.55297852 0.11402893 C67.00568773 0.52419474 68.45503594 0.98018286 70.81640625 3.50170898 C71.37320257 7.3296837 71.53863831 9.50662431 69.22740173 12.69102478 C65.95568731 15.1481184 63.81142159 15.01533177 59.74047852 15.03515625 C58.68363358 15.04807961 58.68363358 15.04807961 57.60543823 15.06126404 C55.28085387 15.08393119 52.95747445 15.07718425 50.6328125 15.06811523 C49.01382591 15.07335087 47.39484238 15.07962713 45.77586365 15.0868988 C42.38387696 15.09730457 38.99230972 15.09273982 35.6003418 15.078125 C31.25769354 15.06094391 26.91636924 15.08442172 22.57386875 15.1196146 C19.2305986 15.14159795 15.88764474 15.14014486 12.54432487 15.13184929 C10.94356777 15.13103013 9.34278736 15.13788694 7.74209785 15.15262032 C5.50115263 15.17008358 3.26257921 15.15551335 1.02172852 15.1328125 C-0.88877541 15.13136986 -0.88877541 15.13136986 -2.83787537 15.12989807 C-7.05927164 14.33729249 -8.54402389 12.81976098 -11.18359375 9.50170898 C-11.74609375 6.93920898 -11.74609375 6.93920898 -11.18359375 4.50170898 C-7.91460637 0.13053272 -5.30471139 0.00068138 0 0 Z " fill="#040301" transform="translate(154.18359375,382.498291015625)"/>
<path d="M0 0 C3.63 0 7.26 0 11 0 C11.11635778 8.43253553 11.20494784 16.86473013 11.25906086 25.29787254 C11.28504559 29.21465995 11.32023604 33.13089416 11.37719727 37.04736328 C11.43191985 40.83403507 11.46150398 44.62017813 11.47438622 48.40721512 C11.48355468 49.84481748 11.50145721 51.28239413 11.52865028 52.71976852 C11.70725476 62.56070852 10.87547779 70.5816139 4.0526886 78.16415405 C-0.26781977 82.41669333 -4.06079697 84.04548523 -10 85 C-8.51227055 81.6187967 -6.47129568 78.87465481 -4.21875 75.9765625 C-1.29409309 71.23336892 -0.74228524 66.55824332 -0.68115234 61.07666016 C-0.67110672 60.4125412 -0.6610611 59.74842224 -0.65071106 59.06417847 C-0.62004738 56.88914788 -0.60289145 54.71423941 -0.5859375 52.5390625 C-0.56721225 51.02305055 -0.54763784 49.50704888 -0.5272522 47.99105835 C-0.47606809 44.01603266 -0.43636931 40.04097323 -0.39910889 36.0657959 C-0.35898285 32.0034154 -0.30792987 27.94117359 -0.2578125 23.87890625 C-0.16121584 15.91936581 -0.07675947 7.95975635 0 0 Z " fill="#E4A54D" transform="translate(443,389)"/>
<path d="M0 0 C12.54 0 25.08 0 38 0 C38 32.67 38 65.34 38 99 C35.03 99.99 35.03 99.99 32 101 C32 68 32 35 32 1 C21.44 1 10.88 1 0 1 C0 0.67 0 0.34 0 0 Z " fill="#D1DBE4" transform="translate(384,161)"/>
<path d="M0 0 C4.26705487 1.65494286 7.1371993 4.84913041 10.296875 8.03125 C10.89050842 8.62296997 11.48414185 9.21468994 12.09576416 9.82434082 C13.34543718 11.07265581 14.59259992 12.32348823 15.83740234 13.57666016 C17.75007952 15.50007997 19.67323119 17.41256099 21.59765625 19.32421875 C22.81053798 20.53842139 24.02279952 21.75324393 25.234375 22.96875 C25.81241882 23.54274536 26.39046265 24.11674072 26.98602295 24.70812988 C31 28.77006566 31 28.77006566 31 31 C27.06745992 31.09895097 23.13540254 31.1715042 19.2019043 31.21972656 C17.20660986 31.24971281 15.21166418 31.30053786 13.21679688 31.3515625 C11.33637695 31.37089844 11.33637695 31.37089844 9.41796875 31.390625 C8.26063232 31.41157227 7.1032959 31.43251953 5.91088867 31.45410156 C3 31 3 31 1.1171875 29.36914062 C-0.32024042 26.32088876 -0.34061503 24.07012862 -0.29296875 20.703125 C-0.28330078 19.49785156 -0.27363281 18.29257813 -0.26367188 17.05078125 C-0.23853516 15.79652344 -0.21339844 14.54226562 -0.1875 13.25 C-0.17396484 11.98027344 -0.16042969 10.71054688 -0.14648438 9.40234375 C-0.1111324 6.26780156 -0.06178248 3.13411455 0 0 Z " fill="#B5BDC5" transform="translate(380,116)"/>
<path d="M0 0 C7.94553625 -0.11623525 15.89071285 -0.20488615 23.83689117 -0.25906086 C27.5273101 -0.28507215 31.21714417 -0.32031166 34.90722656 -0.37719727 C38.47344141 -0.43182461 42.03909643 -0.46148412 45.60569763 -0.47438622 C47.61756881 -0.48801914 49.62921708 -0.52700347 51.64074707 -0.56648254 C59.19478103 -0.56878194 64.18438688 0.0229042 70 5 C70.81581543 5.64694824 71.63163086 6.29389648 72.47216797 6.96044922 C79.91437796 13.79278086 87.02238971 20.9435344 94.125 28.125 C104.71672234 38.93090495 104.71672234 38.93090495 116 49 C113 50 113 50 109.4375 48.625 C100.60667756 43.90341063 93.76184717 35.8698311 86.8359375 28.7734375 C84.6932313 26.67795347 82.5606543 24.79049593 80.26586914 22.87915039 C77.32608402 20.33453802 74.92011724 17.74998659 72.57446289 14.65258789 C66.82069857 7.36741664 61.59226071 1.93833261 52.09716797 0.53076172 C44.88745218 -0.04015751 37.70128305 0.08837083 30.48254395 0.36914062 C27.03658939 0.48432803 23.59015685 0.50014291 20.14257812 0.52539062 C13.42443035 0.59410342 6.71404519 0.75856526 0 1 C0 0.67 0 0.34 0 0 Z " fill="#D59B48" transform="translate(128,238)"/>
<path d="M0 0 C3.01078617 2.54420235 4.16602683 5.31691935 5.625 8.9375 C6.05039062 9.97777344 6.47578125 11.01804687 6.9140625 12.08984375 C11.32179108 23.90192213 9.84509053 37.56676807 5 49 C-0.00958466 59.50479233 -0.00958466 59.50479233 -3 61 C-2.36975551 58.06743379 -1.59021696 56.23507166 -0.125 53.5 C6.4051628 40.48733982 7.05087292 25.05946858 3.0625 11.1875 C2.52302734 9.56908203 2.52302734 9.56908203 1.97265625 7.91796875 C1.09324312 5.27972936 0.48027405 2.73503436 0 0 Z " fill="#1EA731" transform="translate(489,294)"/>
</svg>
